<?xml version="1.0" standalone="no"?>
<!DOCTYPE svg PUBLIC "-//W3C//DTD SVG 20010904//EN"
 "http://www.w3.org/TR/2001/REC-SVG-20010904/DTD/svg10.dtd">
<svg version="1.0" xmlns="http://www.w3.org/2000/svg"
 width="1562.000000pt" height="1562.000000pt" viewBox="0 0 1562.000000 1562.000000"
 preserveAspectRatio="xMidYMid meet">
<metadata>
Created by potrace 1.11, written by Peter Selinger 2001-2013
</metadata>
<g transform="translate(0.000000,1562.000000) scale(0.100000,-0.100000)"
fill="#000000" stroke="none">
<path d="M4362 15540 c-50 -12 -89 -55 -139 -155 -113 -222 -1718 -3684 -2037
-4390 l-81 -180 0 -86 c0 -78 3 -90 30 -135 19 -30 49 -60 79 -79 l49 -30 331
-3 c182 -2 335 -7 339 -11 9 -9 -213 -501 -793 -1761 -661 -1434 -682 -1483
-688 -1565 -7 -108 29 -185 107 -224 34 -18 78 -20 575 -26 l538 -8 -5 -26
c-6 -27 -339 -752 -1051 -2285 -800 -1722 -799 -1719 -804 -1814 -7 -127 42
-208 135 -223 26 -4 695 -11 1486 -15 l1437 -7 1 -681 c0 -375 4 -895 8 -1156
6 -407 10 -480 24 -510 23 -49 57 -87 92 -101 37 -14 565 -25 709 -14 89 6
101 10 131 36 19 17 43 49 54 72 19 41 20 71 27 1192 3 658 10 1157 16 1167 8
16 29 18 230 18 l221 0 -7 -38 c-15 -82 -25 -161 -31 -232 -3 -41 -10 -100
-15 -130 -10 -55 -18 -106 -46 -300 -39 -261 -155 -813 -261 -1235 -47 -188
-66 -286 -70 -352 l-6 -93 39 -39 c23 -22 57 -44 79 -50 29 -8 799 -11 2731
-11 2927 0 2742 -3 2802 53 34 31 62 91 62 131 0 19 -11 82 -25 140 -105 445
-259 1312 -320 1806 -8 69 -17 135 -20 146 -4 18 3 24 39 38 29 11 65 39 105
82 l60 65 103 -3 103 -3 10 -1167 10 -1166 30 -43 c57 -81 40 -77 411 -85 410
-8 452 -5 506 44 50 45 64 73 73 145 4 32 10 561 14 1175 l6 1117 1416 6 c779
4 1441 9 1472 13 49 6 60 12 96 51 51 55 64 102 59 201 -5 78 -7 84 -177 449
-546 1168 -1508 3243 -1627 3508 -24 53 -44 104 -44 112 0 13 47 15 358 15
198 0 441 3 542 7 l184 6 37 34 c49 44 70 105 76 224 l6 96 -556 1204 c-694
1506 -918 1999 -912 2008 2 5 164 10 358 14 379 6 385 6 434 59 35 37 46 78
46 168 -1 85 -1 85 -86 275 -238 532 -1949 4231 -2052 4435 -51 101 -114 140
-198 120 -79 -17 -81 -21 -408 -719 -115 -245 -214 -451 -222 -458 -19 -20
-5484 -20 -5504 0 -7 7 -114 227 -237 488 -292 621 -302 641 -340 666 -38 26
-80 34 -124 23z m215 -1130 c96 -206 492 -1056 879 -1887 388 -832 702 -1517
699 -1523 -4 -7 -589 -10 -1756 -10 -1547 0 -1750 2 -1755 15 -9 24 1726 3787
1744 3783 9 -2 87 -158 189 -378z m6660 368 c6 -7 231 -488 501 -1068 269
-580 662 -1423 872 -1874 209 -450 379 -825 376 -832 -8 -21 -3504 -21 -3512
-1 -7 18 1727 3787 1742 3787 6 0 16 -6 21 -12z m-862 -828 c6 -10 -1380
-3026 -1394 -3035 -4 -2 -533 -5 -1176 -6 l-1170 -2 -121 269 c-242 536 -1148
2551 -1192 2651 -25 57 -42 106 -38 110 7 7 1311 13 4268 21 554 1 819 -1 823
-8z m-4991 -3472 c30 -47 1396 -3049 1396 -3069 l0 -21 -2387 7 c-1314 4
-2391 10 -2395 14 -6 5 1342 2984 1386 3064 l15 27 985 0 986 0 14 -22z m6834
10 c24 -30 1410 -3084 1403 -3091 -5 -5 -1084 -5 -2397 0 -2300 8 -2389 9
-2386 26 2 10 180 406 396 880 216 474 527 1157 691 1517 164 360 302 661 308
668 7 9 218 12 992 12 774 0 985 -3 993 -12z m-2833 -218 l0 -215 -1560 -5
c-858 -3 -1570 -2 -1582 2 -23 7 -23 9 -23 216 0 115 3 212 7 215 3 4 716 6
1582 5 l1576 -3 0 -215z m65 -515 c0 -11 -36 -90 -519 -1138 -669 -1452 -637
-1377 -647 -1490 l-7 -77 -478 0 -479 0 0 114 0 113 -565 1223 c-311 672 -565
1224 -563 1225 2 2 512 8 1133 15 622 6 1173 12 1225 13 320 7 900 8 900 2z
m-4247 -2997 c110 -881 187 -1786 218 -2583 12 -301 8 -1123 -6 -1145 -6 -10
-430 -11 -2029 -5 -1111 4 -2025 10 -2029 14 -7 7 1734 3785 1769 3839 l14 22
1023 0 1022 0 18 -142z m7292 127 c16 -3 119 -220 485 -1017 255 -557 650
-1418 877 -1913 228 -495 411 -905 409 -912 -4 -11 -318 -13 -1632 -13 l-1626
0 139 148 c431 460 563 628 694 884 156 306 226 594 216 883 -10 285 -89 485
-259 652 -145 144 -307 224 -546 272 -345 70 -592 37 -775 -103 -40 -30 -47
-33 -47 -17 0 48 174 1023 186 1042 2 4 5 29 5 56 l2 48 926 -3 c509 -1 935
-5 946 -7z m-2295 -216 c0 -5 -16 -94 -35 -197 -109 -592 -211 -1298 -265
-1842 -69 -701 -77 -1269 -25 -1875 51 -589 161 -1325 304 -2033 l57 -282
-2433 0 c-1720 0 -2433 3 -2433 11 0 6 11 54 25 107 149 591 296 1404 360
1992 66 613 72 1315 19 2190 -33 544 -87 1158 -149 1697 -14 117 -25 220 -25
228 0 13 253 15 2300 15 1610 0 2300 -3 2300 -11z m906 -1164 c336 -50 511
-196 560 -467 38 -207 -21 -500 -156 -773 -125 -253 -258 -417 -814 -1002
l-221 -233 -117 0 -117 0 -8 38 c-12 61 -9 862 5 1047 19 261 50 582 77 812
36 307 29 280 78 288 61 10 72 18 177 119 52 50 112 105 133 121 87 65 203 79
403 50z"/>
<path d="M7760 9577 c-35 -18 -61 -89 -130 -360 -83 -328 -103 -442 -98 -552
7 -136 46 -212 133 -258 33 -18 57 -22 140 -22 84 0 107 3 142 22 46 25 92 85
114 148 23 65 18 290 -8 395 -54 215 -177 569 -211 609 -23 26 -52 33 -82 18z"/>
<path d="M8600 4935 l0 -365 65 0 65 0 0 365 0 365 -65 0 -65 0 0 -365z"/>
<path d="M8850 4935 l0 -365 65 0 65 0 0 365 0 365 -65 0 -65 0 0 -365z"/>
<path d="M6199 5255 c-106 -39 -166 -90 -209 -180 -32 -67 -40 -209 -16 -283
35 -103 110 -182 208 -218 60 -22 190 -23 254 -1 52 18 134 79 134 100 0 7
-23 27 -50 46 l-50 34 -33 -31 c-37 -35 -75 -52 -119 -52 -158 0 -267 171
-212 332 30 90 112 148 209 148 59 0 85 -9 122 -43 l23 -20 40 28 c65 45 66
49 18 89 -23 20 -65 43 -92 51 -60 18 -178 18 -227 0z"/>
<path d="M9110 5240 c-45 -45 -11 -120 55 -120 44 0 75 29 75 70 0 41 -31 70
-75 70 -22 0 -43 -8 -55 -20z"/>
<path d="M6770 5030 c-212 -73 -214 -380 -3 -456 61 -21 150 -17 208 10 93 44
137 116 137 223 1 111 -62 197 -166 228 -65 20 -109 18 -176 -5z m171 -122
c38 -28 53 -69 46 -125 -12 -107 -139 -149 -216 -72 -67 67 -42 181 49 218 33
14 86 4 121 -21z"/>
<path d="M7426 5040 c-16 -5 -42 -21 -57 -36 l-29 -28 0 32 0 32 -60 0 -60 0
0 -235 0 -235 60 0 60 0 0 125 c0 140 10 178 56 214 23 18 39 22 77 19 l48 -3
-3 60 c-3 59 -4 60 -33 62 -16 1 -43 -2 -59 -7z"/>
<path d="M8203 5036 c-46 -15 -113 -54 -113 -65 0 -4 13 -20 30 -36 l30 -29
39 22 c38 22 93 28 139 16 21 -6 52 -49 52 -72 0 -5 -42 -11 -93 -14 -75 -3
-102 -9 -142 -29 -111 -58 -113 -192 -5 -251 54 -29 155 -22 204 15 l36 28 0
-25 c0 -25 3 -26 56 -26 l55 0 -3 178 c-3 202 -15 240 -80 274 -47 25 -151 32
-205 14z m167 -290 c0 -96 -169 -133 -178 -39 -4 40 19 54 103 63 33 4 63 8
68 9 4 0 7 -14 7 -33z"/>
<path d="M9441 5038 c-77 -22 -113 -68 -113 -146 0 -67 24 -92 113 -120 106
-33 124 -44 124 -72 0 -17 -9 -29 -28 -38 -35 -17 -79 -8 -118 25 l-31 26 -41
-41 -41 -41 25 -20 c46 -39 103 -54 183 -49 121 8 178 55 178 147 0 83 -33
114 -160 147 -63 17 -88 35 -79 58 16 42 89 44 128 5 l21 -21 40 38 39 39 -30
27 c-49 44 -133 59 -210 36z"/>
<path d="M7534 5023 c4 -10 46 -116 94 -235 l87 -218 67 0 66 0 30 78 c17 42
57 145 90 229 33 84 57 154 54 157 -3 4 -31 6 -62 6 l-56 0 -59 -155 c-33 -85
-62 -152 -65 -149 -3 3 -30 72 -61 152 l-56 147 -68 3 c-61 3 -67 1 -61 -15z"/>
<path d="M9107 5034 c-4 -4 -7 -110 -7 -236 l0 -228 65 0 65 0 -2 233 -3 232
-55 3 c-31 2 -59 0 -63 -4z"/>
<path d="M7730 4002 c-48 -26 -69 -74 -77 -170 l-6 -82 -43 0 -44 0 0 -55 0
-55 45 0 45 0 0 -180 0 -180 65 0 65 0 0 180 0 180 95 0 95 0 0 -180 0 -180
65 0 65 0 0 180 0 180 50 0 50 0 0 55 0 55 -50 0 -50 0 0 63 c0 83 14 102 74
101 l46 -1 0 54 0 53 -68 0 c-124 0 -168 -46 -179 -188 l-6 -82 -93 0 -94 0 0
63 c0 83 14 102 74 101 l46 -1 0 54 0 53 -68 0 c-46 0 -78 -6 -102 -18z"/>
<path d="M6589 3965 c-106 -39 -166 -90 -209 -180 -32 -67 -40 -209 -16 -283
35 -103 110 -182 208 -218 60 -22 190 -23 254 -1 52 18 134 79 134 100 0 7
-23 27 -50 46 l-50 34 -33 -31 c-37 -35 -75 -52 -119 -52 -158 0 -267 171
-212 332 30 90 112 148 209 148 59 0 85 -9 122 -43 l23 -20 40 28 c65 45 66
49 18 89 -23 20 -65 43 -92 51 -60 18 -178 18 -227 0z"/>
<path d="M7170 3740 c-212 -73 -214 -380 -3 -456 61 -21 150 -17 208 10 93 44
137 116 137 223 1 111 -62 197 -166 228 -65 20 -109 18 -176 -5z m171 -122
c38 -28 53 -69 46 -125 -12 -107 -139 -149 -216 -72 -67 67 -42 181 49 218 33
14 86 4 121 -21z"/>
<path d="M8410 3741 c-137 -49 -199 -202 -136 -337 65 -140 261 -179 393 -78
18 14 33 29 33 34 0 4 -18 22 -41 38 l-41 31 -41 -30 c-68 -50 -157 -34 -190
33 l-16 33 174 3 175 2 0 53 c-2 176 -145 277 -310 218z m134 -92 c21 -10 56
-62 56 -83 0 -3 -49 -6 -110 -6 -105 0 -110 1 -110 21 0 11 13 34 29 50 32 32
88 39 135 18z"/>
<path d="M8960 3741 c-137 -49 -199 -202 -136 -337 65 -140 261 -179 393 -78
18 14 33 29 33 34 0 4 -18 22 -41 38 l-41 31 -41 -30 c-68 -50 -157 -34 -190
33 l-16 33 174 3 175 2 0 53 c-2 176 -145 277 -310 218z m134 -92 c21 -10 56
-62 56 -83 0 -3 -49 -6 -110 -6 -105 0 -110 1 -110 21 0 11 13 34 29 50 32 32
88 39 135 18z"/>
<path d="M8850 2564 l0 -155 -28 20 c-78 55 -196 49 -269 -14 -119 -101 -108
-321 19 -402 74 -46 208 -42 253 7 24 27 35 25 35 -5 0 -24 3 -25 55 -25 l55
0 0 365 0 365 -60 0 -60 0 0 -156z m-49 -236 c38 -28 53 -69 46 -125 -12 -107
-139 -149 -216 -72 -67 67 -42 181 49 218 33 14 86 4 121 -21z"/>
<path d="M6309 2675 c-106 -39 -166 -90 -209 -180 -32 -67 -40 -209 -16 -283
35 -103 110 -182 208 -218 67 -25 209 -23 279 4 139 55 219 177 219 337 0 169
-87 295 -236 340 -60 18 -196 18 -245 0z m209 -121 c85 -35 136 -115 137 -214
0 -109 -44 -187 -129 -226 -90 -42 -184 -27 -252 41 -118 118 -88 326 57 398
43 21 138 22 187 1z"/>
<path d="M8250 2660 c-45 -45 -11 -120 55 -120 44 0 75 29 75 70 0 41 -31 70
-75 70 -22 0 -43 -8 -55 -20z"/>
<path d="M7480 2525 l0 -65 -45 0 -45 0 0 -55 0 -55 45 0 45 0 0 -117 c1 -203
22 -244 134 -251 36 -2 77 -1 91 2 23 6 25 11 25 60 l0 55 -32 -9 c-21 -7 -39
-6 -57 3 -26 12 -26 14 -29 135 l-3 122 61 0 60 0 0 55 0 55 -60 0 -59 0 -3
63 -3 62 -62 3 -63 3 0 -66z"/>
<path d="M7911 2458 c-77 -22 -113 -68 -113 -146 0 -67 24 -92 113 -120 106
-33 124 -44 124 -72 0 -17 -9 -29 -28 -38 -35 -17 -79 -8 -118 25 l-31 26 -41
-41 -41 -41 25 -20 c46 -39 103 -54 183 -49 121 8 178 55 178 147 0 83 -33
114 -160 147 -63 17 -88 35 -79 58 16 42 89 44 128 5 l21 -21 40 38 39 39 -30
27 c-49 44 -133 59 -210 36z"/>
<path d="M9230 2451 c-137 -49 -199 -202 -136 -337 65 -140 261 -179 393 -78
18 14 33 29 33 34 0 4 -18 22 -41 38 l-41 31 -41 -30 c-68 -50 -157 -34 -190
33 l-16 33 174 3 175 2 0 53 c-2 176 -145 277 -310 218z m134 -92 c21 -10 56
-62 56 -83 0 -3 -49 -6 -110 -6 -105 0 -110 1 -110 21 0 11 13 34 29 50 32 32
88 39 135 18z"/>
<path d="M6890 2298 c0 -90 5 -181 11 -203 20 -74 79 -115 164 -115 50 0 77
10 113 43 l22 20 0 -26 c0 -26 2 -27 60 -27 l60 0 -2 233 -3 232 -56 3 -57 3
-3 -150 c-4 -133 -6 -153 -25 -178 -40 -53 -108 -56 -141 -6 -14 21 -18 56
-21 179 l-4 154 -59 0 -59 0 0 -162z"/>
<path d="M8247 2454 c-4 -4 -7 -110 -7 -236 l0 -228 65 0 65 0 -2 233 -3 232
-55 3 c-31 2 -59 0 -63 -4z"/>
</g>
</svg>
